<?xml version="1.0" encoding="utf-8" ?>
<svg xmlns="http://www.w3.org/2000/svg" xmlns:xlink="http://www.w3.org/1999/xlink" width="313" height="313">
	<path fill="#FEFEFE" d="M0 0L313 0L313 313L0 313L0 0Z"/>
	<path d="M16.0223 29.5101L146.748 29.516L182.447 29.5087C191.947 29.5058 201.775 28.9688 211.147 30.7306C236.254 35.4506 259.278 49.5694 273.737 70.8241C288.534 92.2005 294.153 118.613 289.337 144.162C285.088 165.938 273.493 185.595 256.49 199.848C252.729 203.031 248.663 205.795 244.591 208.558C243.387 207.012 241.791 205.631 240.399 204.243L232.645 196.513L222.511 186.41C220.457 184.363 218.443 182.174 216.212 180.325C224.39 175.834 229.218 173.788 236.037 166.867C246.962 155.903 253.008 140.998 252.807 125.522C252.733 110.064 246.488 95.2765 235.458 84.4465C227.906 77.0309 218.032 71.4192 207.688 69.0884C198.252 66.9621 188.615 67.4704 179.013 67.4705L150.189 67.4681L53.8481 67.5053C54.0769 73.5605 53.9348 79.6752 53.9354 85.7364L53.9353 117.791C53.9336 157.71 53.5221 197.675 54.0237 237.586C57.7259 233.258 62.1019 229.288 66.136 225.259L88.0829 203.336C106.482 184.952 125.237 166.832 143.295 148.119C145.47 150.607 148.01 152.905 150.349 155.246L164.205 169.103L206.925 211.789L262.661 267.516C272.465 277.322 282.085 287.543 292.26 296.951C287.93 296.642 283.401 296.932 279.05 296.938L251.744 296.967C247.195 296.971 242.433 297.258 237.914 296.741C224.029 283.392 210.6 269.473 196.974 255.853C179.07 237.957 160.971 220.215 143.293 202.1C141.388 204.318 139.141 206.353 137.068 208.419L125.523 219.93L89.3783 256.026L61.7533 283.736C57.8641 287.645 52.6268 293.659 48.4931 296.83C44.6045 297.15 40.6191 296.963 36.7168 296.962L15.9987 296.958L16.0223 29.5101Z"/>
	<path d="M145.722 268.221C151.303 268.367 156.924 268.23 162.509 268.23C162.64 273.889 162.495 279.558 162.59 285.22C156.96 285.297 151.32 285.232 145.688 285.234C145.655 279.563 145.666 273.892 145.722 268.221Z"/>
	<path d="M124.02 268.238L140.923 268.247L140.962 285.252L124.03 285.247C123.962 279.58 124.019 273.906 124.02 268.238Z"/>
	<path d="M124.031 246.657C129.563 247.067 135.371 246.71 140.933 246.712C140.926 252.272 141.039 257.836 140.85 263.394C138.78 263.966 127.211 263.483 124.039 263.469C124.005 257.865 124.002 252.261 124.031 246.657Z"/>
	<path d="M145.707 246.651C151.171 247.132 157.013 246.71 162.518 246.707L162.593 263.474L145.72 263.489C145.673 257.877 145.669 252.264 145.707 246.651Z"/>
</svg>
