<?xml version="1.0" encoding="utf-8" ?>
<svg xmlns="http://www.w3.org/2000/svg" xmlns:xlink="http://www.w3.org/1999/xlink" width="313" height="313">
	<path d="M16.0946 29.4865C21.2438 29.6512 26.4335 29.5143 31.5885 29.5164L61.6886 29.5227L151.949 29.5253L182.577 29.4805C189.626 29.4405 196.872 29.099 203.896 29.7763C211.251 30.4855 218.558 32.2429 225.539 34.6349C249.989 42.8345 270.063 60.6054 281.168 83.8796C292.315 106.949 293.883 133.492 285.529 157.714C279.398 175.483 267.305 192.08 252.168 203.262C249.792 205.017 247.177 207.035 244.524 208.327C241.399 204.647 237.471 201.278 234.036 197.841C228.171 191.976 222.422 185.8 216.207 180.316C222.907 176.702 229.656 173.186 235.109 167.773C246.295 156.67 252.699 142.17 252.718 126.368C252.737 111.183 247.078 96.0349 236.263 85.2386C228.272 77.2619 218.488 71.5627 207.449 69.0144C197.786 66.7837 187.825 67.3662 177.98 67.4304L153.424 67.4581L53.7973 67.4739C54.2102 73.5415 53.8766 79.8163 53.8724 85.9061L53.8324 121.462C53.5278 160.28 53.5978 199.101 54.0423 237.918C57.5997 232.924 62.5421 228.794 66.8798 224.473C73.9253 217.453 80.9087 210.364 88.0301 203.422C99.006 192.111 110.488 181.247 121.628 170.093C128.661 163.05 136.025 154.725 143.39 148.218C145.514 150.741 148.085 153.042 150.425 155.369L162.545 167.489L205.083 209.942L261.501 266.35C271.638 276.509 281.453 287.185 292.092 296.819C287.949 296.2 283.268 296.752 279.072 296.842C271.148 297.012 263.215 296.863 255.288 296.871C249.612 296.877 243.292 297.529 237.725 296.405C231.611 291.051 225.957 284.981 220.224 279.211C210.507 269.351 200.739 259.542 190.921 249.784C180.37 239.363 169.876 228.882 159.442 218.342C154.152 213.028 148.26 207.784 143.468 202.027C141.732 203.983 139.687 205.765 137.821 207.604L127.165 218.195L87.7943 257.445L62.2897 283.103C57.8755 287.587 53.6634 293.101 48.469 296.68C44.4928 297.084 40.4042 296.909 36.408 296.897L16.2407 296.864C15.742 288.44 16.1659 279.917 16.1777 271.479L16.1662 224.512L16.1902 97.9137L16.1254 44.6183C16.0873 39.5744 16.207 34.5296 16.0946 29.4865ZM52.75 225.237L52.7374 130.43C52.74 126.085 53.2248 97.5473 52.5643 95.6661L52.5224 183.606L52.505 209.285C52.493 214.584 52.3502 219.92 52.5838 225.213L52.75 225.237Z"/>
	<path d="M52.5643 95.6661C53.2248 97.5473 52.74 126.085 52.7374 130.43L52.75 225.237L52.5838 225.213C52.3502 219.92 52.493 214.584 52.505 209.285L52.5224 183.606L52.5643 95.6661Z"/>
	<path d="M145.819 268.33C151.357 268.102 156.976 268.252 162.521 268.288C162.427 273.967 162.607 279.656 162.569 285.338C157.005 285.132 151.349 285.361 145.777 285.371C145.643 279.704 145.54 273.993 145.819 268.33Z"/>
	<path d="M124.068 268.259L140.806 268.265C140.627 273.912 140.984 279.645 141.014 285.304C135.364 285.353 129.714 285.347 124.064 285.287C124.014 279.611 124.015 273.935 124.068 268.259Z"/>
	<path d="M124.001 246.64C129.565 246.955 135.23 246.755 140.802 246.734C141.567 252.037 140.822 258.018 140.758 263.402C138.178 264.163 127.234 263.529 124.035 263.452L124.001 246.64Z"/>
	<path d="M145.85 246.641C151.358 247.016 157.003 246.766 162.522 246.738C162.467 252.335 162.631 257.93 162.521 263.527C156.963 263.252 151.273 263.485 145.701 263.481C145.757 257.88 145.599 252.235 145.85 246.641Z"/>
</svg>
